<svg width="230" height="18" viewBox="0 0 230 18" fill="none" xmlns="http://www.w3.org/2000/svg">
<path d="M8.90079 17.776C7.01479 17.776 5.46612 17.408 4.25479 16.672C3.04345 15.936 2.16945 15.0083 1.63279 13.889C1.09612 12.7543 0.827786 11.5583 0.827786 10.301C0.827786 8.783 1.19579 7.46433 1.93179 6.345C2.68312 5.21033 3.67212 4.35167 4.89879 3.769C6.14079 3.171 7.48245 2.872 8.92379 2.872C9.62912 2.872 10.3651 2.941 11.1318 3.079C11.8985 3.20167 12.5195 3.355 12.9948 3.539C13.1175 3.61567 13.1941 3.68467 13.2248 3.746C13.2708 3.80733 13.2938 3.91467 13.2938 4.068L13.4548 7.15C13.4548 7.196 13.4165 7.219 13.3398 7.219C13.2785 7.219 13.2325 7.196 13.2018 7.15C12.6345 5.98467 11.9061 5.08767 11.0168 4.459C10.1428 3.815 9.14612 3.493 8.02679 3.493C6.57012 3.493 5.45079 4.022 4.66879 5.08C3.90212 6.138 3.51879 7.62533 3.51879 9.542C3.51879 10.922 3.75645 12.21 4.23179 13.406C4.72245 14.602 5.38179 15.5527 6.20979 16.258C7.03779 16.9633 7.95012 17.316 8.94679 17.316C10.5261 17.316 11.9981 16.1507 13.3628 13.82C13.3935 13.774 13.4318 13.751 13.4778 13.751C13.5698 13.751 13.6158 13.797 13.6158 13.889L13.4778 16.534C13.4471 16.7333 13.4165 16.8637 13.3858 16.925C13.3551 16.971 13.2708 17.017 13.1328 17.063C11.7835 17.5383 10.3728 17.776 8.90079 17.776ZM26.6744 15.706C26.6897 15.6907 26.7127 15.683 26.7434 15.683C26.8047 15.683 26.8507 15.7137 26.8814 15.775C26.9274 15.821 26.9427 15.867 26.9274 15.913C26.4521 16.5417 26.0227 17.0017 25.6394 17.293C25.2714 17.569 24.8497 17.707 24.3744 17.707C23.8377 17.707 23.4391 17.523 23.1784 17.155C22.9331 16.7717 22.8181 16.2043 22.8334 15.453L22.8564 11.796C22.8564 10.3547 22.5037 9.634 21.7984 9.634C21.3077 9.634 20.8631 9.91767 20.4644 10.485C20.0657 11.037 19.7437 11.865 19.4984 12.969C19.2684 14.0577 19.1457 15.361 19.1304 16.879V17.224C19.1304 17.362 19.0154 17.4693 18.7854 17.546C18.5554 17.638 18.2181 17.684 17.7734 17.684C17.2367 17.684 16.9531 17.6227 16.9224 17.5V16.971C16.9531 16.5417 16.9684 16.1507 16.9684 15.798L17.0604 3.953C17.0757 3.46233 17.0221 3.102 16.8994 2.872C16.7921 2.642 16.6081 2.527 16.3474 2.527C16.1021 2.527 15.7647 2.63433 15.3354 2.849H15.3124C15.2511 2.849 15.2051 2.81067 15.1744 2.734C15.1284 2.65733 15.1361 2.60367 15.1974 2.573L18.8314 0.824999H18.8774C18.9387 0.824999 19.0001 0.847999 19.0614 0.893999C19.1227 0.939999 19.1534 0.978333 19.1534 1.009L19.1304 12.394C19.4524 11.0907 19.9277 10.0863 20.5564 9.381C21.1851 8.67567 21.9287 8.323 22.7874 8.323C24.2747 8.323 25.0184 9.335 25.0184 11.359L24.9724 15.453C24.9417 16.1737 25.1181 16.534 25.5014 16.534C25.7927 16.534 26.1837 16.258 26.6744 15.706ZM38.5713 15.729C38.5867 15.7137 38.6097 15.706 38.6403 15.706C38.6863 15.706 38.7323 15.7367 38.7783 15.798C38.8243 15.844 38.8397 15.8823 38.8243 15.913C38.395 16.511 37.981 16.9633 37.5823 17.27C37.1837 17.5613 36.7773 17.707 36.3633 17.707C35.8113 17.707 35.3973 17.523 35.1213 17.155C34.8453 16.787 34.7073 16.2197 34.7073 15.453V13.889C34.2933 15.1157 33.7107 16.074 32.9593 16.764C32.208 17.454 31.4107 17.799 30.5673 17.799C29.9387 17.799 29.425 17.592 29.0263 17.178C28.643 16.7487 28.4513 16.097 28.4513 15.223C28.4513 14.211 28.7273 13.1683 29.2793 12.095C29.8313 11.0063 30.5367 10.1093 31.3953 9.404C32.2693 8.68333 33.1587 8.323 34.0633 8.323C34.3853 8.323 34.715 8.37667 35.0523 8.484C35.405 8.576 35.7193 8.72167 35.9953 8.921C36.2867 8.691 36.5013 8.43033 36.6393 8.139C36.67 8.10833 36.7007 8.093 36.7313 8.093C36.7773 8.093 36.8233 8.10833 36.8693 8.139C36.9307 8.16967 36.9537 8.19267 36.9383 8.208L36.8923 15.453C36.877 15.8057 36.9077 16.074 36.9843 16.258C37.0763 16.442 37.2067 16.534 37.3753 16.534C37.5287 16.534 37.7127 16.465 37.9273 16.327C38.142 16.1737 38.3567 15.9743 38.5713 15.729ZM31.8783 16.12C32.3843 16.12 32.852 15.8747 33.2813 15.384C33.726 14.8933 34.071 14.2953 34.3163 13.59C34.577 12.8693 34.7073 12.21 34.7073 11.612C34.7073 10.9373 34.5463 10.4083 34.2243 10.025C33.9177 9.64167 33.496 9.45 32.9593 9.45C32.1773 9.45 31.564 9.83333 31.1193 10.6C30.6747 11.3513 30.4523 12.3327 30.4523 13.544C30.4677 14.4487 30.6057 15.108 30.8663 15.522C31.127 15.9207 31.4643 16.12 31.8783 16.12ZM43.0693 17.753C42.3179 17.753 41.6433 17.592 41.0453 17.27C40.4626 16.948 40.1636 16.557 40.1483 16.097C40.1483 15.7903 40.2403 15.5603 40.4243 15.407C40.6083 15.2383 40.8459 15.154 41.1373 15.154C41.4133 15.154 41.6509 15.2307 41.8503 15.384C42.0496 15.522 42.2796 15.7367 42.5403 16.028C42.8469 16.35 43.1076 16.5877 43.3223 16.741C43.5523 16.8943 43.8283 16.971 44.1503 16.971C44.4416 16.971 44.6409 16.9097 44.7483 16.787C44.8709 16.649 44.9323 16.4343 44.9323 16.143C44.9323 15.591 44.7406 15.131 44.3573 14.763C43.9739 14.3797 43.4066 13.9503 42.6553 13.475C42.1339 13.1377 41.7276 12.854 41.4363 12.624C41.1449 12.394 40.8919 12.1257 40.6773 11.819C40.4779 11.5123 40.3783 11.1597 40.3783 10.761C40.3783 10.3777 40.5163 10.002 40.7923 9.634C41.0683 9.266 41.4516 8.967 41.9423 8.737C42.4483 8.507 43.0233 8.392 43.6673 8.392C44.4799 8.392 45.1393 8.52233 45.6453 8.783C46.1513 9.02833 46.4119 9.358 46.4273 9.772C46.4579 10.0633 46.3736 10.2933 46.1743 10.462C45.9903 10.6307 45.7679 10.715 45.5073 10.715C45.1393 10.715 44.8556 10.646 44.6563 10.508C44.4723 10.37 44.2806 10.1553 44.0813 9.864C43.8819 9.588 43.6903 9.381 43.5063 9.243C43.3376 9.105 43.0846 9.036 42.7473 9.036C42.4713 9.036 42.2719 9.105 42.1493 9.243C42.0266 9.381 41.9653 9.54967 41.9653 9.749C41.9653 10.2243 42.1493 10.6383 42.5173 10.991C42.8853 11.3283 43.4296 11.727 44.1503 12.187C44.9476 12.693 45.5456 13.153 45.9443 13.567C46.3429 13.9657 46.5423 14.4487 46.5423 15.016C46.5269 15.43 46.3813 15.8517 46.1053 16.281C45.8293 16.695 45.4306 17.0477 44.9093 17.339C44.3879 17.615 43.7746 17.753 43.0693 17.753ZM56.5228 16.051C56.5688 16.051 56.6148 16.074 56.6608 16.12C56.7068 16.166 56.7145 16.2043 56.6838 16.235C56.1932 16.7717 55.6335 17.1627 55.0048 17.408C54.3762 17.6533 53.7322 17.776 53.0728 17.776C52.1528 17.776 51.3708 17.569 50.7268 17.155C50.0828 16.741 49.5998 16.1967 49.2778 15.522C48.9558 14.8473 48.7948 14.1267 48.7948 13.36C48.7948 12.532 49.0095 11.7347 49.4388 10.968C49.8682 10.186 50.4738 9.54967 51.2558 9.059C52.0532 8.56833 52.9655 8.323 53.9928 8.323C54.6828 8.323 55.2195 8.43033 55.6028 8.645C56.0015 8.85967 56.2238 9.16633 56.2698 9.565C56.3312 10.2397 55.8558 10.8683 54.8438 11.451C53.8318 12.0337 52.5822 12.4553 51.0948 12.716C51.1562 13.8967 51.4628 14.8703 52.0148 15.637C52.5822 16.3883 53.3488 16.764 54.3148 16.764C54.6828 16.764 55.0585 16.7103 55.4418 16.603C55.8252 16.4803 56.1702 16.2963 56.4768 16.051H56.5228ZM52.7968 8.944C52.2602 8.944 51.8385 9.266 51.5318 9.91C51.2405 10.5387 51.0948 11.3513 51.0948 12.348C52.9502 11.9187 53.8472 11.152 53.7858 10.048C53.7858 9.71067 53.6938 9.44233 53.5098 9.243C53.3412 9.04367 53.1035 8.944 52.7968 8.944ZM87.7162 15.729C87.7469 15.6983 87.7775 15.683 87.8082 15.683C87.8695 15.683 87.9155 15.7137 87.9462 15.775C87.9922 15.821 88.0075 15.867 87.9922 15.913C87.5169 16.5417 87.0875 17.0017 86.7042 17.293C86.3362 17.569 85.9145 17.707 85.4392 17.707C84.8872 17.707 84.4885 17.523 84.2432 17.155C83.9979 16.7717 83.8829 16.2043 83.8982 15.453L83.9212 11.796C83.9212 10.3547 83.5532 9.634 82.8172 9.634C82.3572 9.634 81.9279 9.91 81.5292 10.462C81.1305 10.9987 80.8085 11.7883 80.5632 12.831C80.3179 13.8737 80.1875 15.1157 80.1722 16.557V17.224C80.1722 17.362 80.0572 17.4693 79.8272 17.546C79.6125 17.638 79.2829 17.684 78.8382 17.684C78.3015 17.684 78.0179 17.6227 77.9872 17.5V16.971C78.0179 16.5417 78.0332 16.1507 78.0332 15.798L78.1022 3.953V3.861C78.1022 3.723 78.0179 3.654 77.8492 3.654H73.3642C73.0575 3.654 72.8352 3.69233 72.6972 3.769C72.5745 3.84567 72.4979 3.976 72.4672 4.16C72.4365 4.32867 72.4135 4.62 72.3982 5.034L72.4212 15.637C72.4212 16.1123 72.4672 16.4573 72.5592 16.672C72.6665 16.8867 72.8659 17.0323 73.1572 17.109C73.4485 17.1857 73.9239 17.224 74.5832 17.224C74.6445 17.224 74.6752 17.27 74.6752 17.362C74.6752 17.454 74.6445 17.5 74.5832 17.5C74.0159 17.5 73.5712 17.4923 73.2492 17.477L71.1562 17.454L69.1782 17.477C68.8409 17.4923 68.3655 17.5 67.7522 17.5C67.6909 17.5 67.6602 17.454 67.6602 17.362C67.6602 17.27 67.6832 17.224 67.7292 17.224C68.3732 17.224 68.8409 17.1857 69.1322 17.109C69.4389 17.0323 69.6459 16.8867 69.7532 16.672C69.8605 16.442 69.9142 16.097 69.9142 15.637V4.988C69.9295 4.45133 69.8605 4.09867 69.7072 3.93C69.5539 3.746 69.2625 3.654 68.8332 3.654H68.5342C68.0129 3.654 67.4992 3.82267 66.9932 4.16C66.4872 4.482 66.0579 4.919 65.7052 5.471C65.3525 6.00767 65.1379 6.598 65.0612 7.242C65.0612 7.288 65.0229 7.311 64.9462 7.311C64.9002 7.311 64.8542 7.30333 64.8082 7.288C64.7775 7.25733 64.7699 7.22667 64.7852 7.196C64.8772 6.53667 64.9922 5.011 65.1302 2.619C65.1302 2.573 65.1762 2.55 65.2682 2.55C65.3755 2.55 65.4292 2.573 65.4292 2.619C65.4292 2.95633 65.7742 3.125 66.4642 3.125C67.7062 3.171 69.2625 3.194 71.1332 3.194C73.0499 3.194 74.4299 3.171 75.2732 3.125C76.3772 3.10967 77.3049 2.93333 78.0562 2.596C78.8075 2.25867 79.3902 1.653 79.8042 0.778999C79.8349 0.732999 79.8962 0.71 79.9882 0.71C80.0495 0.71 80.1032 0.725333 80.1492 0.755999C80.1952 0.771332 80.2182 0.794332 80.2182 0.824999L80.1952 12.44C80.5019 11.1213 80.9695 10.1093 81.5982 9.404C82.2269 8.68333 82.9782 8.323 83.8522 8.323C85.3242 8.323 86.0602 9.335 86.0602 11.359L86.0372 15.453C86.0065 16.1737 86.1829 16.534 86.5662 16.534C86.7195 16.534 86.8729 16.4727 87.0262 16.35C87.1949 16.2273 87.4249 16.0203 87.7162 15.729ZM97.1969 16.051C97.2429 16.051 97.2889 16.074 97.3349 16.12C97.3809 16.166 97.3886 16.2043 97.3579 16.235C96.8672 16.7717 96.3076 17.1627 95.6789 17.408C95.0502 17.6533 94.4062 17.776 93.7469 17.776C92.8269 17.776 92.0449 17.569 91.4009 17.155C90.7569 16.741 90.2739 16.1967 89.9519 15.522C89.6299 14.8473 89.4689 14.1267 89.4689 13.36C89.4689 12.532 89.6836 11.7347 90.1129 10.968C90.5422 10.186 91.1479 9.54967 91.9299 9.059C92.7272 8.56833 93.6396 8.323 94.6669 8.323C95.3569 8.323 95.8936 8.43033 96.2769 8.645C96.6756 8.85967 96.8979 9.16633 96.9439 9.565C97.0052 10.2397 96.5299 10.8683 95.5179 11.451C94.5059 12.0337 93.2562 12.4553 91.7689 12.716C91.8302 13.8967 92.1369 14.8703 92.6889 15.637C93.2562 16.3883 94.0229 16.764 94.9889 16.764C95.3569 16.764 95.7326 16.7103 96.1159 16.603C96.4992 16.4803 96.8442 16.2963 97.1509 16.051H97.1969ZM93.4709 8.944C92.9342 8.944 92.5126 9.266 92.2059 9.91C91.9146 10.5387 91.7689 11.3513 91.7689 12.348C93.6242 11.9187 94.5212 11.152 94.4599 10.048C94.4599 9.71067 94.3679 9.44233 94.1839 9.243C94.0152 9.04367 93.7776 8.944 93.4709 8.944ZM120.846 3.125C120.892 3.125 120.915 3.171 120.915 3.263C120.915 3.355 120.892 3.401 120.846 3.401C120.218 3.401 119.704 3.61567 119.305 4.045C118.922 4.47433 118.723 5.057 118.707 5.793L118.684 17.661C118.7 17.707 118.661 17.7453 118.569 17.776C118.493 17.822 118.401 17.845 118.293 17.845C118.14 17.845 118.04 17.799 117.994 17.707L108.357 5.609L108.334 14.832C108.319 15.568 108.503 16.1507 108.886 16.58C109.27 17.0093 109.783 17.224 110.427 17.224C110.489 17.224 110.519 17.27 110.519 17.362C110.519 17.454 110.489 17.5 110.427 17.5C109.998 17.5 109.668 17.4923 109.438 17.477L107.989 17.454L106.609 17.477C106.349 17.4923 105.981 17.5 105.505 17.5C105.444 17.5 105.413 17.454 105.413 17.362C105.413 17.27 105.444 17.224 105.505 17.224C106.149 17.224 106.655 17.0093 107.023 16.58C107.407 16.1507 107.606 15.568 107.621 14.832L107.644 4.735C107.2 4.24433 106.801 3.89933 106.448 3.7C106.111 3.50067 105.758 3.401 105.39 3.401C105.36 3.401 105.344 3.355 105.344 3.263C105.344 3.171 105.36 3.125 105.39 3.125L106.632 3.148C106.878 3.16333 107.207 3.171 107.621 3.171C108.035 3.171 108.38 3.16333 108.656 3.148C108.948 3.13267 109.139 3.125 109.231 3.125C109.354 3.125 109.446 3.15567 109.507 3.217C109.584 3.27833 109.668 3.39333 109.76 3.562C109.944 3.838 110.128 4.091 110.312 4.321L117.971 13.889L118.017 5.793C118.033 5.057 117.849 4.47433 117.465 4.045C117.097 3.61567 116.584 3.401 115.924 3.401C115.863 3.401 115.832 3.355 115.832 3.263C115.832 3.171 115.863 3.125 115.924 3.125L116.821 3.148C117.435 3.17867 117.948 3.194 118.362 3.194C118.684 3.194 119.137 3.17867 119.719 3.148L120.846 3.125ZM130.414 16.051C130.46 16.051 130.506 16.074 130.552 16.12C130.598 16.166 130.606 16.2043 130.575 16.235C130.084 16.7717 129.525 17.1627 128.896 17.408C128.267 17.6533 127.623 17.776 126.964 17.776C126.044 17.776 125.262 17.569 124.618 17.155C123.974 16.741 123.491 16.1967 123.169 15.522C122.847 14.8473 122.686 14.1267 122.686 13.36C122.686 12.532 122.901 11.7347 123.33 10.968C123.759 10.186 124.365 9.54967 125.147 9.059C125.944 8.56833 126.857 8.323 127.884 8.323C128.574 8.323 129.111 8.43033 129.494 8.645C129.893 8.85967 130.115 9.16633 130.161 9.565C130.222 10.2397 129.747 10.8683 128.735 11.451C127.723 12.0337 126.473 12.4553 124.986 12.716C125.047 13.8967 125.354 14.8703 125.906 15.637C126.473 16.3883 127.24 16.764 128.206 16.764C128.574 16.764 128.95 16.7103 129.333 16.603C129.716 16.4803 130.061 16.2963 130.368 16.051H130.414ZM126.688 8.944C126.151 8.944 125.73 9.266 125.423 9.91C125.132 10.5387 124.986 11.3513 124.986 12.348C126.841 11.9187 127.738 11.152 127.677 10.048C127.677 9.71067 127.585 9.44233 127.401 9.243C127.232 9.04367 126.995 8.944 126.688 8.944ZM144.418 8.392C145.123 8.392 145.614 8.72167 145.89 9.381C146.181 10.0403 146.327 10.8453 146.327 11.796C146.327 12.9767 146.143 14.027 145.775 14.947C145.407 15.8517 144.916 16.557 144.303 17.063C143.689 17.5537 143.03 17.799 142.325 17.799C141.389 17.799 140.607 17.3467 139.979 16.442C139.197 17.3467 138.3 17.799 137.288 17.799C136.398 17.799 135.678 17.5307 135.126 16.994C134.574 16.442 134.298 15.7213 134.298 14.832C134.298 13.7127 134.627 12.44 135.287 11.014C135.363 10.8147 135.402 10.6767 135.402 10.6C135.402 10.4467 135.294 10.37 135.08 10.37H133.838C133.255 10.37 132.841 10.4467 132.596 10.6C132.366 10.738 132.22 10.9833 132.159 11.336C132.159 11.3973 132.105 11.428 131.998 11.428C131.952 11.428 131.906 11.4203 131.86 11.405C131.829 11.3743 131.821 11.336 131.837 11.29C131.975 10.554 132.113 10.0097 132.251 9.657C132.389 9.289 132.588 9.02067 132.849 8.852C133.109 8.68333 133.493 8.599 133.999 8.599H136.345C136.498 8.599 136.582 8.61433 136.598 8.645C136.628 8.67567 136.621 8.75233 136.575 8.875C136.115 10.577 135.885 11.957 135.885 13.015C135.885 13.613 135.992 14.142 136.207 14.602C136.421 15.062 136.697 15.4147 137.035 15.66C137.387 15.9053 137.755 16.028 138.139 16.028C138.599 16.028 139.043 15.8517 139.473 15.499C138.997 14.4257 138.76 13.1223 138.76 11.589C138.76 10.5003 138.882 9.71067 139.128 9.22C139.388 8.72933 139.787 8.484 140.324 8.484C140.799 8.484 141.152 8.68333 141.382 9.082C141.612 9.46533 141.727 10.094 141.727 10.968C141.727 12.4707 141.443 13.8123 140.876 14.993C141.566 15.683 142.309 16.028 143.107 16.028C143.812 16.028 144.364 15.775 144.763 15.269C145.177 14.7477 145.384 14.0423 145.384 13.153C145.384 12.6163 145.292 12.1793 145.108 11.842C144.924 11.4893 144.594 11.106 144.119 10.692C143.843 10.462 143.62 10.232 143.452 10.002C143.298 9.772 143.222 9.52667 143.222 9.266C143.222 8.97467 143.329 8.76 143.544 8.622C143.758 8.46867 144.05 8.392 144.418 8.392ZM140.048 10.531C139.557 10.531 139.312 10.8453 139.312 11.474C139.312 11.888 139.404 12.3633 139.588 12.9C139.772 13.4213 140.025 13.912 140.347 14.372C140.561 13.958 140.73 13.5287 140.853 13.084C140.975 12.624 141.037 12.2023 141.037 11.819C141.037 10.9603 140.707 10.531 140.048 10.531ZM165.809 3.332C165.855 4.22133 165.878 5.23333 165.878 6.368C165.878 6.414 165.832 6.437 165.74 6.437C165.663 6.437 165.61 6.42167 165.579 6.391C165.349 5.53233 164.889 4.85767 164.199 4.367C163.524 3.861 162.719 3.608 161.784 3.608H161.324C160.833 3.608 160.488 3.64633 160.289 3.723C160.09 3.78433 159.959 3.907 159.898 4.091C159.837 4.275 159.798 4.58167 159.783 5.011V9.979H162.129C162.896 9.979 163.455 9.841 163.808 9.565C164.176 9.289 164.368 8.83667 164.383 8.208C164.383 8.14667 164.429 8.116 164.521 8.116C164.628 8.116 164.682 8.14667 164.682 8.208L164.659 10.324C164.659 10.8147 164.667 11.1827 164.682 11.428L164.705 12.647C164.705 12.7083 164.667 12.739 164.59 12.739C164.559 12.739 164.521 12.7313 164.475 12.716C164.444 12.6853 164.429 12.6547 164.429 12.624C164.429 11.98 164.214 11.4893 163.785 11.152C163.371 10.7993 162.804 10.623 162.083 10.623H159.783V15.545C159.783 16.0203 159.852 16.373 159.99 16.603C160.128 16.833 160.366 16.994 160.703 17.086C161.056 17.178 161.577 17.224 162.267 17.224C162.328 17.224 162.359 17.27 162.359 17.362C162.359 17.454 162.328 17.5 162.267 17.5C161.914 17.5 161.615 17.4923 161.37 17.477L158.518 17.454L156.931 17.477C156.64 17.4923 156.249 17.5 155.758 17.5C155.712 17.5 155.689 17.454 155.689 17.362C155.689 17.27 155.712 17.224 155.758 17.224C156.233 17.224 156.571 17.1857 156.77 17.109C156.985 17.0323 157.123 16.8867 157.184 16.672C157.261 16.4573 157.299 16.1123 157.299 15.637V4.988C157.299 4.528 157.261 4.19067 157.184 3.976C157.107 3.76133 156.962 3.61567 156.747 3.539C156.532 3.447 156.203 3.401 155.758 3.401C155.712 3.401 155.689 3.355 155.689 3.263C155.689 3.171 155.712 3.125 155.758 3.125H165.648C165.709 3.125 165.748 3.14033 165.763 3.171C165.794 3.20167 165.809 3.25533 165.809 3.332ZM170.764 17.707C170.212 17.707 169.814 17.523 169.568 17.155C169.323 16.7717 169.208 16.2043 169.223 15.453L169.292 3.953C169.308 3.46233 169.262 3.10967 169.154 2.895C169.047 2.665 168.863 2.55 168.602 2.55C168.326 2.55 167.989 2.64967 167.59 2.849H167.544C167.468 2.849 167.422 2.81067 167.406 2.734C167.376 2.642 167.391 2.58833 167.452 2.573L171.063 0.824999H171.109C171.171 0.824999 171.232 0.847999 171.293 0.893999C171.355 0.939999 171.385 0.978333 171.385 1.009L171.362 15.453C171.332 16.1737 171.508 16.534 171.891 16.534C172.045 16.534 172.213 16.465 172.397 16.327C172.597 16.189 172.819 15.9897 173.064 15.729C173.095 15.6983 173.126 15.683 173.156 15.683C173.202 15.683 173.241 15.7137 173.271 15.775C173.317 15.821 173.333 15.867 173.317 15.913C172.857 16.5417 172.436 17.0017 172.052 17.293C171.669 17.569 171.24 17.707 170.764 17.707ZM185.387 15.729C185.402 15.7137 185.425 15.706 185.456 15.706C185.502 15.706 185.548 15.7367 185.594 15.798C185.64 15.844 185.655 15.8823 185.64 15.913C185.21 16.511 184.796 16.9633 184.398 17.27C183.999 17.5613 183.593 17.707 183.179 17.707C182.627 17.707 182.213 17.523 181.937 17.155C181.661 16.787 181.523 16.2197 181.523 15.453V13.889C181.109 15.1157 180.526 16.074 179.775 16.764C179.023 17.454 178.226 17.799 177.383 17.799C176.754 17.799 176.24 17.592 175.842 17.178C175.458 16.7487 175.267 16.097 175.267 15.223C175.267 14.211 175.543 13.1683 176.095 12.095C176.647 11.0063 177.352 10.1093 178.211 9.404C179.085 8.68333 179.974 8.323 180.879 8.323C181.201 8.323 181.53 8.37667 181.868 8.484C182.22 8.576 182.535 8.72167 182.811 8.921C183.102 8.691 183.317 8.43033 183.455 8.139C183.485 8.10833 183.516 8.093 183.547 8.093C183.593 8.093 183.639 8.10833 183.685 8.139C183.746 8.16967 183.769 8.19267 183.754 8.208L183.708 15.453C183.692 15.8057 183.723 16.074 183.8 16.258C183.892 16.442 184.022 16.534 184.191 16.534C184.344 16.534 184.528 16.465 184.743 16.327C184.957 16.1737 185.172 15.9743 185.387 15.729ZM178.694 16.12C179.2 16.12 179.667 15.8747 180.097 15.384C180.541 14.8933 180.886 14.2953 181.132 13.59C181.392 12.8693 181.523 12.21 181.523 11.612C181.523 10.9373 181.362 10.4083 181.04 10.025C180.733 9.64167 180.311 9.45 179.775 9.45C178.993 9.45 178.379 9.83333 177.935 10.6C177.49 11.3513 177.268 12.3327 177.268 13.544C177.283 14.4487 177.421 15.108 177.682 15.522C177.942 15.9207 178.28 16.12 178.694 16.12ZM191.685 17.799C191.149 17.799 190.635 17.661 190.144 17.385C189.654 17.0937 189.255 16.7103 188.948 16.235C188.657 15.7443 188.511 15.2307 188.511 14.694C188.511 14.3413 188.557 13.9963 188.649 13.659C188.757 13.3217 188.925 12.854 189.155 12.256C189.401 11.6427 189.554 11.2287 189.615 11.014C189.677 10.8453 189.707 10.7073 189.707 10.6C189.707 10.5233 189.684 10.4697 189.638 10.439C189.592 10.393 189.516 10.37 189.408 10.37H188.166C187.584 10.37 187.17 10.4467 186.924 10.6C186.694 10.738 186.549 10.9833 186.487 11.336C186.487 11.3973 186.434 11.428 186.326 11.428C186.28 11.428 186.234 11.4203 186.188 11.405C186.158 11.3743 186.15 11.336 186.165 11.29C186.303 10.554 186.441 10.0097 186.579 9.657C186.717 9.289 186.917 9.02067 187.177 8.852C187.438 8.68333 187.821 8.599 188.327 8.599H190.673C190.827 8.599 190.911 8.61433 190.926 8.645C190.957 8.67567 190.949 8.75233 190.903 8.875C190.704 9.59567 190.535 10.3547 190.397 11.152C190.275 11.9493 190.213 12.6163 190.213 13.153C190.213 14.0117 190.443 14.7093 190.903 15.246C191.363 15.7673 191.923 16.028 192.582 16.028C193.303 16.028 193.916 15.7443 194.422 15.177C194.928 14.5943 195.181 13.8507 195.181 12.946C195.181 12.44 195.089 12.0413 194.905 11.75C194.721 11.4587 194.392 11.106 193.916 10.692C193.656 10.462 193.441 10.2397 193.272 10.025C193.119 9.795 193.042 9.542 193.042 9.266C193.042 8.97467 193.142 8.76 193.341 8.622C193.541 8.46867 193.809 8.392 194.146 8.392C194.867 8.392 195.373 8.69867 195.664 9.312C195.956 9.91 196.101 10.6767 196.101 11.612C196.101 12.8233 195.894 13.9043 195.48 14.855C195.066 15.7903 194.522 16.5187 193.847 17.04C193.173 17.546 192.452 17.799 191.685 17.799ZM202.762 17.822C201.872 17.822 201.106 17.615 200.462 17.201C199.833 16.7717 199.358 16.2043 199.036 15.499C198.714 14.7937 198.553 14.0193 198.553 13.176C198.553 12.2253 198.752 11.382 199.151 10.646C199.549 9.91 200.101 9.34267 200.807 8.944C201.527 8.53 202.332 8.323 203.222 8.323C204.571 8.323 205.621 8.75233 206.373 9.611C207.124 10.4697 207.5 11.5813 207.5 12.946C207.5 13.9733 207.277 14.855 206.833 15.591C206.388 16.327 205.805 16.8867 205.085 17.27C204.364 17.638 203.59 17.822 202.762 17.822ZM203.521 17.247C204.073 17.247 204.487 16.9557 204.763 16.373C205.039 15.775 205.177 14.9547 205.177 13.912C205.177 13.0227 205.054 12.1947 204.809 11.428C204.579 10.646 204.257 10.025 203.843 9.565C203.429 9.105 202.976 8.875 202.486 8.875C201.98 8.875 201.581 9.14333 201.29 9.68C200.998 10.2167 200.853 11.014 200.853 12.072C200.853 12.992 200.975 13.8507 201.221 14.648C201.466 15.43 201.788 16.0587 202.187 16.534C202.601 17.0093 203.045 17.247 203.521 17.247ZM220.576 15.66C220.591 15.6447 220.614 15.637 220.645 15.637C220.706 15.637 220.76 15.6677 220.806 15.729C220.867 15.775 220.875 15.821 220.829 15.867C220.353 16.5263 219.901 17.0017 219.472 17.293C219.058 17.569 218.613 17.707 218.138 17.707C217.601 17.707 217.21 17.546 216.965 17.224C216.719 16.8867 216.589 16.3883 216.574 15.729V13.774C216.252 15.062 215.776 16.0587 215.148 16.764C214.534 17.454 213.798 17.799 212.94 17.799C212.204 17.799 211.644 17.546 211.261 17.04C210.893 16.534 210.716 15.775 210.732 14.763L210.824 10.669C210.839 9.94833 210.655 9.588 210.272 9.588C210.118 9.588 209.957 9.64933 209.789 9.772C209.635 9.89467 209.413 10.1017 209.122 10.393C209.091 10.4237 209.068 10.439 209.053 10.439C208.991 10.439 208.938 10.416 208.892 10.37C208.846 10.3087 208.83 10.255 208.846 10.209C209.321 9.58033 209.743 9.128 210.111 8.852C210.494 8.56067 210.916 8.415 211.376 8.415C211.897 8.415 212.296 8.599 212.572 8.967C212.848 9.335 212.97 9.90233 212.94 10.669L212.871 14.326C212.855 15.7673 213.216 16.488 213.952 16.488C214.412 16.488 214.833 16.235 215.217 15.729C215.615 15.2077 215.937 14.441 216.183 13.429C216.428 12.417 216.566 11.2133 216.597 9.818V8.898C216.597 8.76 216.712 8.65267 216.942 8.576C217.172 8.484 217.509 8.438 217.954 8.438C218.475 8.438 218.759 8.49933 218.805 8.622V9.151C218.774 9.58033 218.759 9.97133 218.759 10.324L218.736 15.453C218.736 16.2043 218.927 16.58 219.311 16.58C219.648 16.58 220.07 16.2733 220.576 15.66ZM229.907 9.565C229.907 9.82567 229.785 10.1093 229.539 10.416C229.294 10.7073 229.026 10.853 228.734 10.853C228.581 10.853 228.443 10.83 228.32 10.784C228.213 10.7227 228.075 10.646 227.906 10.554C227.799 10.4927 227.692 10.439 227.584 10.393C227.492 10.347 227.4 10.324 227.308 10.324C227.017 10.324 226.741 10.6997 226.48 11.451C226.235 12.187 226.036 13.0917 225.882 14.165C225.744 15.223 225.668 16.1813 225.652 17.04V17.224C225.652 17.5307 225.215 17.684 224.341 17.684C223.805 17.684 223.521 17.6227 223.49 17.5V16.971C223.521 16.5417 223.536 16.1507 223.536 15.798L223.559 10.669C223.559 9.91767 223.36 9.542 222.961 9.542C222.609 9.542 222.195 9.84867 221.719 10.462C221.689 10.4927 221.658 10.508 221.627 10.508C221.566 10.508 221.512 10.485 221.466 10.439C221.42 10.3777 221.42 10.3163 221.466 10.255C221.926 9.611 222.371 9.14333 222.8 8.852C223.23 8.56067 223.682 8.415 224.157 8.415C224.694 8.415 225.077 8.58367 225.307 8.921C225.537 9.243 225.668 9.73367 225.698 10.393L225.675 12.854C225.875 11.4893 226.174 10.4083 226.572 9.611C226.971 8.79833 227.492 8.392 228.136 8.392C228.52 8.392 228.911 8.51467 229.309 8.76C229.708 8.99 229.907 9.25833 229.907 9.565Z" fill="white"/>
</svg>
